<svg width="24" height="24" viewBox="0 0 24 24" fill="none" xmlns="http://www.w3.org/2000/svg">
<path fill-rule="evenodd" clip-rule="evenodd" d="M8.05 1C8.65751 1 9.15 1.49035 9.15 2.09524V3.19048H16.85V2.09524C16.85 1.49035 17.3425 1 17.95 1C18.5575 1 19.05 1.49035 19.05 2.09524V3.21752C21.8293 3.49227 24 5.82707 24 8.66667V18.5238C24 21.5482 21.5376 24 18.5 24H7.5C4.46243 24 2 21.5482 2 18.5238V8.66667C2 5.82707 4.17067 3.49227 6.95 3.21752V2.09524C6.95 1.49035 7.44249 1 8.05 1ZM4.38778 7.57143H21.6122C21.1592 6.29527 19.9368 5.38095 18.5 5.38095H7.5C6.06316 5.38095 4.8408 6.29527 4.38778 7.57143ZM21.8 9.7619H4.2V18.5238C4.2 20.3385 5.67746 21.8095 7.5 21.8095H18.5C20.3225 21.8095 21.8 20.3385 21.8 18.5238V9.7619ZM6.4 13.0476C6.4 12.4427 6.89249 11.9524 7.5 11.9524H18.5C19.1075 11.9524 19.6 12.4427 19.6 13.0476C19.6 13.6525 19.1075 14.1429 18.5 14.1429H7.5C6.89249 14.1429 6.4 13.6525 6.4 13.0476Z" fill="black"/>
</svg>
