<svg width="24" height="24" viewBox="0 0 24 24" fill="none" xmlns="http://www.w3.org/2000/svg">
<path fill-rule="evenodd" clip-rule="evenodd" d="M6.05 0C6.65751 0 7.15 0.490355 7.15 1.09524V2.19048H14.85V1.09524C14.85 0.490355 15.3425 0 15.95 0C16.5575 0 17.05 0.490355 17.05 1.09524V2.21752C19.8293 2.49227 22 4.82707 22 7.66667V17.5238C22 20.5482 19.5376 23 16.5 23H5.5C2.46243 23 0 20.5482 0 17.5238V7.66667C0 4.82707 2.17067 2.49227 4.95 2.21752V1.09524C4.95 0.490355 5.44249 0 6.05 0ZM2.38778 6.57143H19.6122C19.1592 5.29527 17.9368 4.38095 16.5 4.38095H5.5C4.06316 4.38095 2.8408 5.29527 2.38778 6.57143ZM19.8 8.7619H2.2V17.5238C2.2 19.3385 3.67746 20.8095 5.5 20.8095H16.5C18.3225 20.8095 19.8 19.3385 19.8 17.5238V8.7619ZM4.4 11.5C4.4 10.8951 4.89249 10.4048 5.5 10.4048H16.5C17.1075 10.4048 17.6 10.8951 17.6 11.5C17.6 12.1049 17.1075 12.5952 16.5 12.5952H5.5C4.89249 12.5952 4.4 12.1049 4.4 11.5ZM4.4 14.7857C4.4 14.1808 4.89249 13.6905 5.5 13.6905H16.5C17.1075 13.6905 17.6 14.1808 17.6 14.7857C17.6 15.3906 17.1075 15.881 16.5 15.881H5.5C4.89249 15.881 4.4 15.3906 4.4 14.7857ZM4.4 18.0714C4.4 17.4665 4.89249 16.9762 5.5 16.9762H16.5C17.1075 16.9762 17.6 17.4665 17.6 18.0714C17.6 18.6763 17.1075 19.1667 16.5 19.1667H5.5C4.89249 19.1667 4.4 18.6763 4.4 18.0714Z" fill="black"/>
</svg>
