<svg width="29" height="29" viewBox="0 0 29 29" fill="none" xmlns="http://www.w3.org/2000/svg">
<path fill-rule="evenodd" clip-rule="evenodd" d="M14.44 0.935974C15.6104 0.935974 16.5593 1.88595 16.5593 3.05781L16.5585 12.4545H25.9447C27.1151 12.4545 28.064 13.4045 28.064 14.5764C28.064 15.7482 27.1151 16.6982 25.9447 16.6982L16.5585 16.6974L16.5593 26.0949C16.5593 27.2668 15.6104 28.2168 14.44 28.2168C13.2695 28.2168 12.3207 27.2668 12.3207 26.0949V16.6974L2.93527 16.6982C1.76482 16.6982 0.815979 15.7482 0.815979 14.5764C0.815979 13.4045 1.76482 12.4545 2.93527 12.4545H12.3207V3.05781C12.3207 1.88595 13.2695 0.935974 14.44 0.935974Z" fill="white"/>
</svg>
