<svg width="35" height="34" viewBox="0 0 35 34" fill="none" xmlns="http://www.w3.org/2000/svg">
<path fill-rule="evenodd" clip-rule="evenodd" d="M33.03 17.0172C33.03 25.5942 26.077 32.5472 17.5 32.5472C8.92299 32.5472 1.96997 25.5942 1.96997 17.0172C1.96997 8.44023 8.92299 1.48721 17.5 1.48721C26.077 1.48721 33.03 8.44023 33.03 17.0172ZM23.063 11.724C23.063 8.76115 20.5618 6.34034 17.5004 6.34034C14.4391 6.34034 11.9379 8.76115 11.9379 11.724C11.9379 14.6869 14.4391 17.1077 17.5004 17.1077C20.5617 17.1077 23.063 14.6869 23.063 11.724Z" stroke="#49B583" stroke-width="2"/>
<path d="M24.5948 29.9166V26.3434C24.5948 24.1343 22.804 22.3434 20.5948 22.3434H14.3951C12.186 22.3434 10.3951 24.1343 10.3951 26.3434V29.9166" stroke="#49B583" stroke-width="2" stroke-linecap="round"/>
</svg>
