<svg width="22" height="23" viewBox="0 0 22 23" fill="none" xmlns="http://www.w3.org/2000/svg">
<path fill-rule="evenodd" clip-rule="evenodd" d="M6.05 0C6.65751 0 7.15 0.490355 7.15 1.09524V2.19048H14.85V1.09524C14.85 0.490355 15.3425 0 15.95 0C16.5575 0 17.05 0.490355 17.05 1.09524V2.21752C19.8293 2.49227 22 4.82707 22 7.66667V17.5238C22 20.5482 19.5376 23 16.5 23H5.5C2.46243 23 0 20.5482 0 17.5238V7.66667C0 4.82707 2.17067 2.49227 4.95 2.21752V1.09524C4.95 0.490355 5.44249 0 6.05 0ZM2.38778 6.57143H19.6122C19.1592 5.29527 17.9368 4.38095 16.5 4.38095H5.5C4.06316 4.38095 2.8408 5.29527 2.38778 6.57143ZM19.8 8.7619H2.2V17.5238C2.2 19.3385 3.67746 20.8095 5.5 20.8095H16.5C18.3225 20.8095 19.8 19.3385 19.8 17.5238V8.7619Z" fill="black"/>
</svg>
